<svg width="104" height="104" viewBox="0 0 104 104" fill="none" xmlns="http://www.w3.org/2000/svg">
<path d="M86.7874 103.75L71.0899 76.495C71.0899 66.5475 64.9374 60.165 57.4624 60.165C52.2874 60.165 47.8024 63.04 45.5024 67.295C47.3999 66.2025 49.6424 65.6275 51.9999 65.6275C59.4749 65.6275 65.5699 71.7225 65.5699 79.1975C65.5699 86.73 59.5324 92.8825 51.9999 92.8825H70.9749V103.75H22.0424C20.6624 103.75 19.2249 103.232 18.1899 102.14C17.1689 101.118 16.5953 99.7322 16.5953 98.2875C16.5953 96.8428 17.1689 95.4571 18.1899 94.435L21.0649 91.56C19.1099 90.6975 17.4999 89.375 15.8899 87.995C14.6249 90.87 11.7499 92.8825 8.41494 92.8825C6.24183 92.8825 4.15771 92.0192 2.62109 90.4826C1.08446 88.946 0.221191 86.8619 0.221191 84.6887C0.221191 82.5156 1.08446 80.4315 2.62109 78.8949C4.15771 77.3583 6.24183 76.495 8.41494 76.495L11.1174 76.955V65.6275C11.1099 62.0462 11.8097 58.4987 13.1767 55.1885C14.5437 51.8784 16.551 48.8708 19.0833 46.3384C21.6157 43.806 24.6233 41.7987 27.9334 40.4317C31.2436 39.0647 34.7911 38.3649 38.3724 38.3725H38.4874C50.6774 38.43 60.1649 43.2025 60.1649 35.67C60.1649 30.3225 61.3149 28.195 63.2699 25.205C59.0724 23.25 54.2999 22.0425 49.2974 22.0425C46.2499 22.0425 43.8349 19.6275 43.8349 16.58C43.8349 14.1075 45.4449 12.0375 47.6874 11.3475L43.8349 11.1175C40.8449 11.1175 38.3724 8.7025 38.3724 5.7125C38.3724 2.665 40.8449 0.25 43.8349 0.25H49.2974C61.3724 0.25 71.9524 6.8625 77.6449 16.6375L79.2549 16.58C83.3374 16.58 87.1324 17.9025 90.2374 20.0875L92.8249 22.2725C105.302 33.485 103.75 41.075 103.75 41.1325C103.75 48.4925 97.6549 54.53 90.2374 54.53L87.4199 54.2425V54.7025C87.4199 61.085 84.6599 66.7775 80.3474 70.8025L99.3799 103.75H86.7874ZM87.4199 27.505C84.3724 27.505 81.9574 29.92 81.9574 32.91C81.9574 35.9575 84.3724 38.3725 87.4199 38.3725C90.4099 38.3725 92.8825 35.9575 92.8825 32.91C92.8825 29.92 90.4099 27.505 87.4199 27.505Z" fill="white"/>
</svg>
