<svg width="48" height="57" viewBox="0 0 48 57" fill="none" xmlns="http://www.w3.org/2000/svg">
<path d="M0 32.6665C0 39.0317 2.52856 45.1362 7.02944 49.6371C11.5303 54.1379 17.6348 56.6665 24 56.6665C24 43.3332 13.2533 32.6665 0 32.6665ZM24 12.6665C25.7681 12.6665 27.4638 13.3689 28.714 14.6191C29.9643 15.8694 30.6667 17.5651 30.6667 19.3332C30.6667 21.1013 29.9643 22.797 28.714 24.0472C27.4638 25.2975 25.7681 25.9998 24 25.9998C22.2319 25.9998 20.5362 25.2975 19.286 24.0472C18.0357 22.797 17.3333 21.1013 17.3333 19.3332C17.3333 17.5651 18.0357 15.8694 19.286 14.6191C20.5362 13.3689 22.2319 12.6665 24 12.6665ZM6.93333 25.3332C6.93333 27.1013 7.63571 28.797 8.88595 30.0472C10.1362 31.2975 11.8319 31.9998 13.6 31.9998C15.0133 31.9998 16.32 31.5465 17.3333 30.8265V31.3332C17.3333 33.1013 18.0357 34.797 19.286 36.0472C20.5362 37.2975 22.2319 37.9998 24 37.9998C25.7681 37.9998 27.4638 37.2975 28.714 36.0472C29.9643 34.797 30.6667 33.1013 30.6667 31.3332V30.8265C31.68 31.5465 32.9867 31.9998 34.4 31.9998C36.1681 31.9998 37.8638 31.2975 39.114 30.0472C40.3643 28.797 41.0667 27.1013 41.0667 25.3332C41.0667 22.6665 39.4933 20.3998 37.2533 19.3332C39.4933 18.2665 41.0667 15.9732 41.0667 13.3332C41.0667 11.5651 40.3643 9.86937 39.114 8.61913C37.8638 7.36888 36.1681 6.6665 34.4 6.6665C32.9867 6.6665 31.68 7.09317 30.6667 7.83984V7.33317C30.6667 5.56506 29.9643 3.86937 28.714 2.61913C27.4638 1.36888 25.7681 0.666504 24 0.666504C22.2319 0.666504 20.5362 1.36888 19.286 2.61913C18.0357 3.86937 17.3333 5.56506 17.3333 7.33317V7.83984C16.32 7.09317 15.0133 6.6665 13.6 6.6665C11.8319 6.6665 10.1362 7.36888 8.88595 8.61913C7.63571 9.86937 6.93333 11.5651 6.93333 13.3332C6.93333 15.9732 8.50667 18.2665 10.7467 19.3332C8.50667 20.3998 6.93333 22.6665 6.93333 25.3332ZM24 56.6665C30.3652 56.6665 36.4697 54.1379 40.9706 49.6371C45.4714 45.1362 48 39.0317 48 32.6665C34.6667 32.6665 24 43.3332 24 56.6665Z" fill="white"/>
</svg>
