<svg width="42" height="42" viewBox="0 0 42 42" fill="none" xmlns="http://www.w3.org/2000/svg">
<path fill-rule="evenodd" clipRule="evenodd" d="M18.5249 4.37534C19.1813 3.71919 20.0713 3.35059 20.9994 3.35059C21.9275 3.35059 22.8176 3.71919 23.4739 4.37534L26.3299 7.23134C26.7044 6.70634 27.0649 6.17434 27.4184 5.64759C28.0869 4.64309 28.7274 3.15209 30.2167 3.56509C30.5853 3.66721 30.9103 3.88729 31.1419 4.19164C31.3736 4.49599 31.4992 4.86785 31.4994 5.25034V15.7503C31.4991 18.2318 30.6202 20.633 29.0186 22.5284C27.417 24.4237 25.196 25.6908 22.7494 26.1051V33.1051C24.4151 32.8228 25.9883 32.1432 27.3356 31.1239C28.683 30.1046 29.7649 28.7757 30.4897 27.2496C30.5883 27.042 30.7268 26.8558 30.8973 26.7017C31.0679 26.5476 31.2671 26.4286 31.4836 26.3515C31.7002 26.2743 31.9298 26.2406 32.1593 26.2523C32.3889 26.2639 32.6139 26.3206 32.8215 26.4192C33.0292 26.5178 33.2154 26.6563 33.3695 26.8269C33.5236 26.9974 33.6426 27.1966 33.7197 27.4132C33.7968 27.6297 33.8305 27.8593 33.8189 28.0889C33.8072 28.3184 33.7505 28.5435 33.6519 28.7511C32.6434 30.8763 31.116 32.7134 29.2107 34.0931C27.3053 35.4727 25.0833 36.3504 22.7494 36.6453C22.7494 37.6358 22.0372 38.5021 20.9994 38.5021C19.9617 38.5021 19.2494 37.6358 19.2494 36.6436C16.9159 36.349 14.6941 35.4718 12.7888 34.0928C10.8835 32.7138 9.35592 30.8774 8.34692 28.7528C8.14781 28.3335 8.12343 27.8522 8.27916 27.4149C8.43489 26.9776 8.75795 26.6201 9.17729 26.421C9.59663 26.2219 10.0779 26.1975 10.5152 26.3532C10.9525 26.5089 11.3101 26.832 11.5092 27.2513C12.2342 28.7771 13.3162 30.1057 14.6635 31.1247C16.0109 32.1436 17.5839 32.8229 19.2494 33.1051V26.1051C16.8028 25.6908 14.5818 24.4237 12.9802 22.5284C11.3786 20.633 10.4997 18.2318 10.4994 15.7503V5.25034C10.4993 4.86755 10.6247 4.49529 10.8564 4.19058C11.0881 3.88588 11.4133 3.66554 11.7822 3.56334C13.2627 3.15384 13.9172 4.65009 14.5822 5.64584C14.9322 6.17434 15.2944 6.70634 15.6689 7.23134L18.5249 4.37534ZM17.8809 9.96834C18.6019 10.7331 19.8654 12.2503 20.9994 12.2503C22.1334 12.2503 23.3969 10.7331 24.1179 9.96834L20.9994 6.84984L17.8809 9.96834Z" fill="#E6E199"/>
</svg>
